<svg xmlns="http://www.w3.org/2000/svg" xmlns:xlink="http://www.w3.org/1999/xlink" width="219" height="151" viewBox="0 0 219 151">
  <defs>
    <clipPath id="clip-path">
      <rect id="Rectangle_24" data-name="Rectangle 24" width="151" height="219" fill="#fff"/>
    </clipPath>
  </defs>
  <g id="Groupe_101" data-name="Groupe 101" transform="translate(-908)">
    <g id="_5e310425e800ca41f276c5f9_background-object-1-hero" data-name="5e310425e800ca41f276c5f9_background-object-1-hero" transform="translate(1127) rotate(90)" clip-path="url(#clip-path)">
      <g id="Groupe_35" data-name="Groupe 35" transform="translate(1.5 0)">
        <circle id="Ellipse_126" data-name="Ellipse 126" cx="4.69" cy="4.69" r="4.69" fill="#dde7f8"/>
        <circle id="Ellipse_127" data-name="Ellipse 127" cx="4.69" cy="4.69" r="4.69" transform="translate(0 112.572)" fill="#dde7f8"/>
        <circle id="Ellipse_128" data-name="Ellipse 128" cx="4.69" cy="4.69" r="4.69" transform="translate(0 37.524)" fill="#dde7f8"/>
        <circle id="Ellipse_129" data-name="Ellipse 129" cx="4.69" cy="4.69" r="4.69" transform="translate(0 150.096)" fill="#dde7f8"/>
        <circle id="Ellipse_130" data-name="Ellipse 130" cx="4.69" cy="4.69" r="4.69" transform="translate(0 75.048)" fill="#dde7f8"/>
        <circle id="Ellipse_131" data-name="Ellipse 131" cx="4.69" cy="4.69" r="4.69" transform="translate(0 187.62)" fill="#dde7f8"/>
        <circle id="Ellipse_132" data-name="Ellipse 132" cx="4.69" cy="4.69" r="4.69" transform="translate(0 206)" fill="#dde7f8"/>
        <circle id="Ellipse_133" data-name="Ellipse 133" cx="4.69" cy="4.69" r="4.69" transform="translate(0 18.762)" fill="#dde7f8"/>
        <circle id="Ellipse_134" data-name="Ellipse 134" cx="4.69" cy="4.69" r="4.69" transform="translate(0 131.334)" fill="#dde7f8"/>
        <circle id="Ellipse_135" data-name="Ellipse 135" cx="4.69" cy="4.69" r="4.69" transform="translate(0 56.286)" fill="#dde7f8"/>
        <circle id="Ellipse_136" data-name="Ellipse 136" cx="4.69" cy="4.69" r="4.69" transform="translate(0 168.858)" fill="#dde7f8"/>
        <circle id="Ellipse_137" data-name="Ellipse 137" cx="4.69" cy="4.69" r="4.69" transform="translate(0 93.81)" fill="#dde7f8"/>
        <circle id="Ellipse_138" data-name="Ellipse 138" cx="4.69" cy="4.69" r="4.69" transform="translate(75.048)" fill="#dde7f8"/>
        <circle id="Ellipse_139" data-name="Ellipse 139" cx="4.69" cy="4.69" r="4.69" transform="translate(75.048 112.572)" fill="#dde7f8"/>
        <circle id="Ellipse_140" data-name="Ellipse 140" cx="4.69" cy="4.69" r="4.69" transform="translate(75.048 37.524)" fill="#dde7f8"/>
        <circle id="Ellipse_141" data-name="Ellipse 141" cx="4.69" cy="4.69" r="4.69" transform="translate(75.048 150.096)" fill="#dde7f8"/>
        <circle id="Ellipse_142" data-name="Ellipse 142" cx="4.69" cy="4.69" r="4.69" transform="translate(75.048 75.048)" fill="#dde7f8"/>
        <circle id="Ellipse_143" data-name="Ellipse 143" cx="4.69" cy="4.69" r="4.69" transform="translate(75.048 187.62)" fill="#dde7f8"/>
        <circle id="Ellipse_144" data-name="Ellipse 144" cx="4.69" cy="4.69" r="4.69" transform="translate(75.048 206)" fill="#dde7f8"/>
        <circle id="Ellipse_145" data-name="Ellipse 145" cx="4.69" cy="4.69" r="4.69" transform="translate(75.048 18.762)" fill="#dde7f8"/>
        <circle id="Ellipse_146" data-name="Ellipse 146" cx="4.69" cy="4.69" r="4.69" transform="translate(75.048 131.334)" fill="#dde7f8"/>
        <circle id="Ellipse_147" data-name="Ellipse 147" cx="4.69" cy="4.69" r="4.69" transform="translate(75.048 56.286)" fill="#dde7f8"/>
        <circle id="Ellipse_148" data-name="Ellipse 148" cx="4.69" cy="4.69" r="4.69" transform="translate(75.048 168.858)" fill="#dde7f8"/>
        <circle id="Ellipse_149" data-name="Ellipse 149" cx="4.69" cy="4.69" r="4.69" transform="translate(75.048 93.81)" fill="#dde7f8"/>
        <circle id="Ellipse_150" data-name="Ellipse 150" cx="4.69" cy="4.69" r="4.69" transform="translate(56.286)" fill="#dde7f8"/>
        <circle id="Ellipse_151" data-name="Ellipse 151" cx="4.69" cy="4.69" r="4.69" transform="translate(56.286 112.572)" fill="#dde7f8"/>
        <circle id="Ellipse_152" data-name="Ellipse 152" cx="4.69" cy="4.69" r="4.69" transform="translate(56.286 37.524)" fill="#dde7f8"/>
        <circle id="Ellipse_153" data-name="Ellipse 153" cx="4.69" cy="4.69" r="4.69" transform="translate(56.286 150.096)" fill="#dde7f8"/>
        <circle id="Ellipse_154" data-name="Ellipse 154" cx="4.69" cy="4.69" r="4.69" transform="translate(56.286 75.048)" fill="#dde7f8"/>
        <circle id="Ellipse_155" data-name="Ellipse 155" cx="4.69" cy="4.69" r="4.69" transform="translate(56.286 187.62)" fill="#dde7f8"/>
        <circle id="Ellipse_156" data-name="Ellipse 156" cx="4.69" cy="4.69" r="4.69" transform="translate(56.286 206)" fill="#dde7f8"/>
        <circle id="Ellipse_157" data-name="Ellipse 157" cx="4.69" cy="4.69" r="4.69" transform="translate(56.286 18.762)" fill="#dde7f8"/>
        <circle id="Ellipse_158" data-name="Ellipse 158" cx="4.69" cy="4.69" r="4.69" transform="translate(56.286 131.334)" fill="#dde7f8"/>
        <circle id="Ellipse_159" data-name="Ellipse 159" cx="4.69" cy="4.69" r="4.69" transform="translate(56.286 56.286)" fill="#dde7f8"/>
        <circle id="Ellipse_160" data-name="Ellipse 160" cx="4.69" cy="4.69" r="4.69" transform="translate(56.286 168.858)" fill="#dde7f8"/>
        <circle id="Ellipse_161" data-name="Ellipse 161" cx="4.69" cy="4.69" r="4.69" transform="translate(56.286 93.81)" fill="#dde7f8"/>
        <circle id="Ellipse_162" data-name="Ellipse 162" cx="4.69" cy="4.69" r="4.69" transform="translate(18.762)" fill="#dde7f8"/>
        <circle id="Ellipse_163" data-name="Ellipse 163" cx="4.69" cy="4.69" r="4.69" transform="translate(18.762 112.572)" fill="#dde7f8"/>
        <circle id="Ellipse_164" data-name="Ellipse 164" cx="4.69" cy="4.69" r="4.69" transform="translate(18.762 37.524)" fill="#dde7f8"/>
        <circle id="Ellipse_165" data-name="Ellipse 165" cx="4.69" cy="4.69" r="4.69" transform="translate(18.762 150.096)" fill="#dde7f8"/>
        <circle id="Ellipse_166" data-name="Ellipse 166" cx="4.69" cy="4.69" r="4.69" transform="translate(18.762 75.048)" fill="#dde7f8"/>
        <circle id="Ellipse_167" data-name="Ellipse 167" cx="4.69" cy="4.69" r="4.69" transform="translate(18.762 187.62)" fill="#dde7f8"/>
        <circle id="Ellipse_168" data-name="Ellipse 168" cx="4.69" cy="4.69" r="4.69" transform="translate(18.762 206)" fill="#dde7f8"/>
        <circle id="Ellipse_169" data-name="Ellipse 169" cx="4.69" cy="4.69" r="4.69" transform="translate(18.762 18.762)" fill="#dde7f8"/>
        <circle id="Ellipse_170" data-name="Ellipse 170" cx="4.69" cy="4.69" r="4.69" transform="translate(18.762 131.334)" fill="#dde7f8"/>
        <circle id="Ellipse_171" data-name="Ellipse 171" cx="4.69" cy="4.69" r="4.69" transform="translate(18.762 56.286)" fill="#dde7f8"/>
        <circle id="Ellipse_172" data-name="Ellipse 172" cx="4.69" cy="4.69" r="4.69" transform="translate(18.762 168.858)" fill="#dde7f8"/>
        <circle id="Ellipse_173" data-name="Ellipse 173" cx="4.69" cy="4.69" r="4.69" transform="translate(18.762 93.81)" fill="#dde7f8"/>
        <circle id="Ellipse_174" data-name="Ellipse 174" cx="4.69" cy="4.69" r="4.69" transform="translate(37.524)" fill="#dde7f8"/>
        <circle id="Ellipse_175" data-name="Ellipse 175" cx="4.69" cy="4.69" r="4.69" transform="translate(37.524 112.572)" fill="#dde7f8"/>
        <circle id="Ellipse_176" data-name="Ellipse 176" cx="4.69" cy="4.69" r="4.69" transform="translate(37.524 37.524)" fill="#dde7f8"/>
        <circle id="Ellipse_177" data-name="Ellipse 177" cx="4.69" cy="4.69" r="4.69" transform="translate(37.524 150.096)" fill="#dde7f8"/>
        <circle id="Ellipse_178" data-name="Ellipse 178" cx="4.69" cy="4.69" r="4.69" transform="translate(37.524 75.048)" fill="#dde7f8"/>
        <circle id="Ellipse_179" data-name="Ellipse 179" cx="4.69" cy="4.69" r="4.69" transform="translate(37.524 187.62)" fill="#dde7f8"/>
        <circle id="Ellipse_180" data-name="Ellipse 180" cx="4.69" cy="4.69" r="4.69" transform="translate(37.524 206)" fill="#dde7f8"/>
        <circle id="Ellipse_181" data-name="Ellipse 181" cx="4.69" cy="4.69" r="4.69" transform="translate(37.524 18.762)" fill="#dde7f8"/>
        <circle id="Ellipse_182" data-name="Ellipse 182" cx="4.69" cy="4.69" r="4.69" transform="translate(37.524 131.334)" fill="#dde7f8"/>
        <circle id="Ellipse_183" data-name="Ellipse 183" cx="4.69" cy="4.69" r="4.69" transform="translate(37.524 56.286)" fill="#dde7f8"/>
        <circle id="Ellipse_184" data-name="Ellipse 184" cx="4.69" cy="4.69" r="4.69" transform="translate(37.524 168.858)" fill="#dde7f8"/>
        <circle id="Ellipse_185" data-name="Ellipse 185" cx="4.69" cy="4.69" r="4.69" transform="translate(37.524 93.81)" fill="#dde7f8"/>
      </g>
      <rect id="Rectangle_23" data-name="Rectangle 23" width="115" height="107" transform="translate(36.5 19)" fill="#3285ff"/>
    </g>
  </g>
</svg>
